<svg width="198" height="31" viewBox="0 0 198 31" fill="none" xmlns="http://www.w3.org/2000/svg">
<path d="M9.112 1.472C14.008 1.472 16.408 4.352 16.856 8.192H13.208C12.952 5.664 11.48 4.16 8.92 4.16C6.84 4.16 5.208 5.12 5.208 7.2C5.208 9.344 6.52 10.336 9.944 11.136C14.808 12.256 17.112 14.336 17.112 18.016C17.112 22.016 13.56 24.448 9.272 24.448C4.216 24.448 0.984 22.048 0.536 17.6H4.184C4.76 20.32 6.68 21.76 9.272 21.76C11.576 21.76 13.4 20.512 13.4 18.496C13.4 16.192 12.056 15.008 8.472 14.176C4.28 13.184 1.496 11.616 1.496 7.776C1.496 3.872 4.984 1.472 9.112 1.472ZM35.0553 7.008V24H31.5673V21.088L30.3833 23.2C29.0393 24.16 27.7913 24.448 26.0953 24.448C22.5753 24.448 20.5273 22.464 20.1432 20.128C20.0153 19.264 19.9833 18.496 19.9833 17.12V7.008H23.4713V16.416C23.4713 16.96 23.5033 17.888 23.5993 18.752C23.8553 20.608 25.0713 21.824 27.2473 21.824C29.7113 21.824 31.5673 19.936 31.5673 15.008V7.008H35.0553ZM45.0238 6.56C48.9278 6.56 51.1038 8.768 51.4878 11.872H47.9038C47.5518 10.08 46.4958 9.024 44.7678 9.024C43.1038 9.024 42.3038 9.952 42.3038 11.232C42.3038 12.768 43.5518 13.408 46.0798 14.08C49.7918 15.04 51.7438 16.512 51.7438 19.52C51.7438 22.816 48.8318 24.448 45.1198 24.448C41.3438 24.448 38.5598 22.752 38.0798 18.912H41.6318C42.0477 21.088 43.4878 21.952 45.2478 21.952C46.8798 21.952 48.1918 21.248 48.1918 19.776C48.1918 18.304 47.0398 17.504 44.1598 16.736C41.0558 15.936 38.7518 14.624 38.7518 11.648C38.7518 8.48 41.2478 6.56 45.0238 6.56ZM58.9625 9.6V18.496C58.9625 19.072 58.9625 19.456 58.9945 19.904C59.1225 21.568 59.7625 21.92 62.0665 21.696V24.128C61.1705 24.256 60.3385 24.32 59.4745 24.32C56.8185 24.32 55.6665 23.328 55.5065 21.088C55.4745 20.512 55.4745 19.776 55.4745 18.816V9.6H53.0745V7.136H55.4745V3.072H58.9625V7.136H62.2905V9.6H58.9625ZM75.2813 24L74.9613 21.536L74.0973 23.36C72.9453 24.16 71.4733 24.448 69.8733 24.448C66.8653 24.448 64.4013 22.72 64.4013 19.552C64.4013 15.776 67.4093 13.728 73.8413 13.728H74.9293V13.312C74.9293 12.672 74.9293 12.096 74.8653 11.456C74.7693 10.08 73.9053 9.12 71.8893 9.12C69.8413 9.12 68.7853 10.272 68.5933 12.384H65.0733C65.2973 8.672 68.0813 6.56 71.9533 6.56C76.3373 6.56 78.0653 8.416 78.3533 11.296C78.4173 12 78.4493 12.896 78.4493 13.696V19.68C78.4493 20.96 78.5133 22.112 78.7693 24H75.2813ZM71.1533 21.888C73.3613 21.888 74.9293 20.384 74.9293 17.632V16.064C70.8013 15.744 68.1133 16.672 68.1133 19.264C68.1133 21.056 69.2973 21.888 71.1533 21.888ZM84.6868 1.088C85.8708 1.088 86.7668 1.952 86.7668 3.104C86.7668 4.288 85.8708 5.152 84.6868 5.152C83.5028 5.152 82.6388 4.288 82.6388 3.104C82.6388 1.952 83.5028 1.088 84.6868 1.088ZM86.4468 24H82.9268V7.008H86.4468V24ZM105.966 11.424C106.03 12.288 106.062 13.056 106.062 14.432V24H102.542V14.816C102.542 14.016 102.542 13.28 102.478 12.416C102.318 10.496 101.294 9.152 98.894 9.152C96.462 9.152 94.478 11.072 94.478 16.384V24H90.958V7.008H94.478V9.824L95.63 7.872C96.974 6.848 98.222 6.56 99.918 6.56C103.566 6.56 105.646 8.448 105.966 11.424ZM120.156 24L119.836 21.536L118.972 23.36C117.82 24.16 116.348 24.448 114.748 24.448C111.74 24.448 109.276 22.72 109.276 19.552C109.276 15.776 112.284 13.728 118.716 13.728H119.804V13.312C119.804 12.672 119.804 12.096 119.74 11.456C119.644 10.08 118.78 9.12 116.764 9.12C114.716 9.12 113.66 10.272 113.468 12.384H109.948C110.172 8.672 112.956 6.56 116.828 6.56C121.212 6.56 122.94 8.416 123.228 11.296C123.292 12 123.324 12.896 123.324 13.696V19.68C123.324 20.96 123.388 22.112 123.644 24H120.156ZM116.028 21.888C118.236 21.888 119.804 20.384 119.804 17.632V16.064C115.676 15.744 112.988 16.672 112.988 19.264C112.988 21.056 114.172 21.888 116.028 21.888ZM137.05 6.56C141.914 6.56 144.698 10.24 144.698 15.2C144.698 21.44 140.858 24.448 136.474 24.448C135.066 24.448 133.306 24.064 132.442 23.392L131.322 21.696V24H127.802V0.48H131.322V9.664L132.602 7.84C133.562 7.04 135.322 6.56 137.05 6.56ZM136.058 21.888C138.874 21.888 140.986 19.744 140.986 15.52C140.986 11.84 139.29 9.12 136.218 9.12C133.594 9.12 131.322 10.784 131.322 15.328V16.192C131.322 20.352 133.818 21.888 136.058 21.888ZM149.593 1.088C150.777 1.088 151.673 1.952 151.673 3.104C151.673 4.288 150.777 5.152 149.593 5.152C148.409 5.152 147.545 4.288 147.545 3.104C147.545 1.952 148.409 1.088 149.593 1.088ZM151.353 24H147.833V7.008H151.353V24ZM159.256 0.48V18.816C159.256 19.392 159.256 19.904 159.288 20.416C159.352 21.376 159.8 21.696 161.304 21.568V24.032C160.6 24.128 159.8 24.192 159 24.192C157.144 24.192 155.896 23.52 155.768 21.344C155.736 20.704 155.736 19.936 155.736 18.912V0.48H159.256ZM165.999 1.088C167.183 1.088 168.079 1.952 168.079 3.104C168.079 4.288 167.183 5.152 165.999 5.152C164.815 5.152 163.951 4.288 163.951 3.104C163.951 1.952 164.815 1.088 165.999 1.088ZM167.759 24H164.239V7.008H167.759V24ZM176.463 9.6V18.496C176.463 19.072 176.463 19.456 176.495 19.904C176.623 21.568 177.263 21.92 179.567 21.696V24.128C178.671 24.256 177.839 24.32 176.975 24.32C174.319 24.32 173.167 23.328 173.007 21.088C172.975 20.512 172.975 19.776 172.975 18.816V9.6H170.575V7.136H172.975V3.072H176.463V7.136H179.791V9.6H176.463ZM197.869 7.008L190.957 25.088C189.389 29.12 187.565 30.72 184.493 30.72C183.789 30.72 183.341 30.72 182.829 30.624V28.032C183.245 28.064 183.597 28.064 183.949 28.064C185.549 28.064 186.637 27.392 187.405 25.408L187.661 24.8L180.813 7.008H184.749L189.421 21.376L194.061 7.008H197.869Z" fill="#1D636F"/>
</svg>
