<svg width="395" height="86" viewBox="0 0 395 86" fill="none" xmlns="http://www.w3.org/2000/svg">
<path fill-rule="evenodd" clip-rule="evenodd" d="M7.41088 0C3.31647 0 0 3.28853 0 7.35043C0 11.4123 3.31647 14.7009 7.41088 14.7009C11.5053 14.7009 14.8218 11.4123 14.8218 7.35043C14.8218 3.28853 11.5053 0 7.41088 0ZM13.3397 20.5811H0.741211V85.9999H13.3397V20.5811ZM205.345 37.7227C208.091 34.9744 211.872 33.2643 216.027 33.2643C220.182 33.2643 223.964 34.9744 226.709 37.7227C229.455 40.4709 231.158 44.2572 231.158 48.4229V85.9999H243.818V48.4229C243.818 40.7571 240.698 33.7966 235.661 28.7526C230.624 23.7153 223.676 20.5811 216.027 20.5811C208.378 20.5811 201.43 23.7086 196.393 28.7526C191.363 33.7966 188.236 40.7571 188.236 48.4229V85.9999H200.896V48.4229C200.896 44.2639 202.599 40.4709 205.345 37.7227ZM82.0732 33.2617C75.929 33.2653 70.6173 38.4 70.6173 44.6316V85.9999H57.8842V44.6316C57.8842 38.145 52.8881 33.4147 46.9872 33.2617C44.0202 33.2617 40.2947 34.4659 38.1659 36.6081C36.1169 38.6706 34.8396 41.5114 34.8396 44.6316V85.9999H22.2329V44.6316C22.2329 38.0119 24.9206 31.9976 29.2514 27.6399C33.5823 23.2822 40.4078 20.5811 46.9872 20.5811C53.5667 20.5811 59.2613 23.2822 63.5921 27.6399C63.8117 27.8595 64.0312 28.0923 64.2441 28.3252C64.457 28.0923 64.6765 27.8661 64.896 27.6399C69.2269 23.2822 75.487 20.5811 82.0664 20.5811C88.6459 20.5811 94.6265 23.2822 98.9574 27.6399C103.288 31.9976 105.976 38.0119 105.976 44.6316V85.9999H93.6486V44.6316C93.6486 38.1939 88.3968 33.2652 82.0732 33.2617ZM146.736 20.5811C155.739 20.5811 163.894 24.248 169.794 30.1643C175.693 36.0806 179.344 44.2596 179.344 53.2905C179.344 53.6499 179.324 54.2222 179.284 54.9942C179.25 55.5665 179.21 56.1322 179.15 56.6912L127.015 56.425C127.689 60.7042 129.704 64.5308 132.621 67.4524C136.231 71.0727 141.223 73.3155 146.736 73.3155C150.333 73.3155 153.763 72.3704 156.72 70.6601V70.6468C159.723 68.9098 162.266 66.4075 164.041 63.3263L174.959 69.6219C172.036 74.6997 167.892 78.7925 163.04 81.601H163.013C158.121 84.436 152.522 85.9999 146.736 85.9999C137.733 85.9999 129.578 82.333 123.678 76.4167C117.778 70.5004 114.128 62.3214 114.128 53.2905C114.128 44.2596 117.778 36.0806 123.678 30.1643C129.578 24.2414 137.733 20.5811 146.736 20.5811ZM132.621 39.1353C131.253 40.5062 130.085 42.0768 129.157 43.8004L164.421 44.0001C163.48 42.1966 162.272 40.5595 160.851 39.1353C157.24 35.515 152.248 33.2722 146.736 33.2722C141.223 33.2722 136.231 35.515 132.621 39.1353ZM306.741 20.5811V28.6613C300.992 23.6311 293.472 20.5877 285.236 20.5877C277 20.5877 267.916 23.9168 261.846 29.9836C248.877 42.1437 248.563 64.1117 261.605 76.3715C267.514 82.2854 276.218 85.9002 285.236 85.9002C293.472 85.9002 300.992 82.8569 306.741 77.8267V85.9999H319.409V20.5811H306.741ZM299.308 67.381C295.644 70.9958 290.584 73.2351 284.995 73.2351C279.407 73.2351 274.346 70.9958 270.683 67.381C267.02 63.7595 264.754 58.7626 264.754 53.2407C264.754 47.7188 267.02 42.7218 270.683 39.1004C274.346 35.4789 279.407 33.2462 284.995 33.2462C290.584 33.2462 295.644 35.4856 299.308 39.1004C302.971 42.7152 305.237 47.7188 305.237 53.2407C305.237 58.7626 302.971 63.7595 299.308 67.381ZM362.359 20.8287C371.371 20.8287 379.534 24.4765 385.44 30.3621C391.345 36.2476 395 44.3841 395 53.368C395 62.3519 391.345 70.4884 385.44 76.3739C379.534 82.2661 371.371 85.9073 362.359 85.9073C353.815 85.9073 346.039 82.6302 340.22 77.2743V86H327.561V3.67522H340.22V29.4617C346.039 24.0992 353.815 20.8287 362.359 20.8287ZM362.746 73.355C368.331 73.355 373.388 71.124 377.049 67.5225C380.71 63.9143 382.975 58.9358 382.975 53.4342C382.975 47.9327 380.71 42.9475 377.049 39.346C373.388 35.7445 368.331 33.5134 362.746 33.5134C357.162 33.5134 352.104 35.7379 348.444 39.346C344.783 42.9541 342.518 47.9327 342.518 53.4342C342.518 58.9358 344.783 63.9143 348.444 67.5225C352.104 71.124 357.162 73.355 362.746 73.355Z" fill="#414141"/>
</svg>
