<svg width="274" height="28" viewBox="0 0 274 28" fill="none" xmlns="http://www.w3.org/2000/svg">
<path d="M16.568 15.992C16.632 15.992 16.688 16.088 16.736 16.28C16.784 16.472 16.808 16.696 16.808 16.952V19.04C16.808 19.296 16.784 19.52 16.736 19.712C16.688 19.904 16.632 20 16.568 20H15.608C15.624 20.08 15.632 20.216 15.632 20.408C15.632 21.72 15.232 22.816 14.432 23.696C13.648 24.592 12.592 25.256 11.264 25.688C9.952 26.12 8.496 26.336 6.896 26.336C4.656 26.336 3.048 25.912 2.072 25.064C1.096 24.216 0.608 22.944 0.608 21.248C0.608 20.672 0.792 19.304 1.16 17.144L1.76 13.328L4.208 13.856C3.584 17.6 3.272 19.864 3.272 20.648C3.272 21.272 3.632 21.704 4.352 21.944C5.088 22.2 5.936 22.328 6.896 22.328C8.4 22.328 9.648 22.224 10.64 22.016C11.632 21.824 12.432 21.496 13.04 21.032C13.072 20.6 12.888 20.32 12.488 20.192C12.088 20.064 11.4 20 10.424 20H9.2L9.872 15.992H16.568ZM22.2421 9.752C22.4021 12.216 22.4821 14.232 22.4821 15.8C22.4821 16.408 22.3621 16.984 22.1221 17.528C21.8821 18.056 21.5061 18.496 20.9941 18.848C19.8581 19.616 18.0661 20 15.6181 20C15.5541 20 15.5061 19.912 15.4741 19.736C15.4261 19.544 15.4021 19.312 15.4021 19.04V16.952C15.4021 16.696 15.4261 16.472 15.4741 16.28C15.5061 16.088 15.5541 15.992 15.6181 15.992C16.5781 15.992 17.3861 15.952 18.0421 15.872C18.6981 15.792 19.2661 15.64 19.7461 15.416L19.1701 10.28L22.2421 9.752ZM20.0101 2.864L22.6981 5.024L20.6341 7.52L17.9461 5.36L20.0101 2.864ZM30.7991 15.992C30.8631 15.992 30.9111 16.088 30.9431 16.28C30.9911 16.472 31.0151 16.696 31.0151 16.952V19.04C31.0151 19.312 30.9911 19.544 30.9431 19.736C30.9111 19.912 30.8631 20 30.7991 20H30.0551C28.8871 20 27.9431 19.824 27.2231 19.472C26.5031 19.12 25.9591 18.52 25.5911 17.672C25.2231 16.808 25.0071 15.6 24.9431 14.048L24.4871 2.216L27.6551 1.688L27.6791 14C27.6951 14.608 27.8631 15.096 28.1831 15.464C28.5191 15.816 29.0071 15.992 29.6471 15.992H30.7991ZM44.8466 15.992C44.9106 15.992 44.9666 16.088 45.0146 16.28C45.0626 16.472 45.0866 16.696 45.0866 16.952V19.04C45.0866 19.296 45.0626 19.52 45.0146 19.712C44.9666 19.904 44.9106 20 44.8466 20C44.0946 20 43.3826 19.864 42.7106 19.592C42.0386 19.304 41.5266 18.864 41.1746 18.272L41.0546 19.016C41.0066 19.304 40.9106 19.552 40.7666 19.76C40.6226 19.968 40.3426 20.232 39.9266 20.552C39.6546 20.776 39.4146 20.936 39.2066 21.032C38.9986 21.128 38.7986 21.176 38.6066 21.176C38.4146 21.176 38.2386 21.136 38.0786 21.056L33.5906 19.064C33.2546 19.384 32.8226 19.624 32.2946 19.784C31.7826 19.928 31.1346 20 30.3506 20H29.8466C29.7826 20 29.7346 19.912 29.7026 19.736C29.6546 19.544 29.6306 19.312 29.6306 19.04V16.952C29.6306 16.696 29.6546 16.472 29.7026 16.28C29.7346 16.088 29.7826 15.992 29.8466 15.992H30.6866C31.2146 15.992 31.5986 15.96 31.8386 15.896C32.0946 15.832 32.2866 15.712 32.4146 15.536C32.5426 15.36 32.7026 15.064 32.8946 14.648C33.5346 13.16 34.2066 12.096 34.9106 11.456C35.6146 10.816 36.5106 10.496 37.5986 10.496C39.1666 10.496 40.3186 11.536 41.0546 13.616C41.2466 14.208 41.4546 14.664 41.6786 14.984C41.9026 15.304 42.2546 15.552 42.7346 15.728C43.2306 15.904 43.9346 15.992 44.8466 15.992ZM38.5586 17.528C38.6706 17.192 38.7266 16.76 38.7266 16.232C38.7266 15.544 38.5986 14.984 38.3426 14.552C38.0866 14.12 37.7026 13.904 37.1906 13.904C36.7586 13.904 36.3986 14.048 36.1106 14.336C35.8386 14.608 35.4626 15.128 34.9826 15.896L38.5586 17.528ZM53.0786 15.992C53.1426 15.992 53.1906 16.088 53.2226 16.28C53.2706 16.472 53.2946 16.696 53.2946 16.952V19.04C53.2946 19.312 53.2706 19.544 53.2226 19.736C53.1906 19.912 53.1426 20 53.0786 20C51.6866 20 50.6626 19.864 50.0066 19.592C49.3506 19.304 48.9186 18.832 48.7106 18.176C48.3906 18.848 47.8706 19.32 47.1506 19.592C46.4306 19.864 45.3426 20 43.8866 20C43.8226 20 43.7746 19.912 43.7426 19.736C43.6946 19.544 43.6706 19.312 43.6706 19.04V16.952C43.6706 16.696 43.6946 16.472 43.7426 16.28C43.7746 16.088 43.8226 15.992 43.8866 15.992C45.4546 15.992 46.6066 15.8 47.3426 15.416L46.8146 11.12L49.8626 10.784L50.0786 15.56C50.7826 15.848 51.7826 15.992 53.0786 15.992ZM45.9266 4.208L48.3266 6.152L46.3826 8.552L43.9826 6.608L45.9266 4.208ZM49.9346 4.208L52.3346 6.152L50.3906 8.552L47.9906 6.608L49.9346 4.208ZM57.2261 8.288C57.8501 8.288 58.4981 8.4 59.1701 8.624C59.8581 8.832 60.7541 9.16 61.8581 9.608C63.2341 10.168 64.4261 10.6 65.4341 10.904C66.4581 11.208 67.5221 11.36 68.6261 11.36L67.9061 15.152C66.8181 15.264 65.8021 15.52 64.8581 15.92C63.9301 16.32 62.8821 16.848 61.7141 17.504C61.1381 17.824 60.7221 18.048 60.4661 18.176C58.1781 19.392 55.6341 20 52.8341 20H52.1141C52.0501 20 52.0021 19.912 51.9701 19.736C51.9221 19.544 51.8981 19.312 51.8981 19.04V16.952C51.8981 16.696 51.9221 16.472 51.9701 16.28C52.0021 16.088 52.0501 15.992 52.1141 15.992H52.8821C54.7541 15.992 56.7781 15.672 58.9541 15.032C59.5141 14.872 60.2261 14.608 61.0901 14.24C61.9861 13.824 62.7141 13.56 63.2741 13.448C62.4741 13.304 61.4981 13 60.3461 12.536C59.6261 12.28 59.0421 12.088 58.5941 11.96C58.1621 11.832 57.7701 11.768 57.4181 11.768C56.9701 11.768 56.6501 11.896 56.4581 12.152C56.2821 12.392 56.1541 12.768 56.0741 13.28L53.7221 12.872C54.1861 9.816 55.3541 8.288 57.2261 8.288ZM59.1941 0.895998L61.8821 3.056L59.8181 5.552L57.1301 3.392L59.1941 0.895998ZM76.5997 15.992C76.6637 15.992 76.7117 16.088 76.7437 16.28C76.7917 16.472 76.8157 16.696 76.8157 16.952V19.04C76.8157 19.312 76.7917 19.544 76.7437 19.736C76.7117 19.912 76.6637 20 76.5997 20H75.8557C74.6877 20 73.7437 19.824 73.0237 19.472C72.3037 19.12 71.7597 18.52 71.3917 17.672C71.0237 16.808 70.8077 15.6 70.7437 14.048L70.2877 2.216L73.4557 1.688L73.4797 14C73.4957 14.608 73.6637 15.096 73.9837 15.464C74.3197 15.816 74.8077 15.992 75.4477 15.992H76.5997ZM92.6872 9.752C92.8472 12.04 92.9272 14.072 92.9272 15.848C92.9272 16.76 92.7352 17.528 92.3512 18.152C91.9832 18.776 91.4872 19.24 90.8632 19.544C90.2552 19.848 89.5992 20 88.8952 20C88.0952 20 87.4152 19.888 86.8552 19.664C86.2952 19.44 85.8792 19.048 85.6072 18.488C85.3192 19.064 84.9112 19.464 84.3832 19.688C83.8712 19.896 83.3832 20 82.9192 20C81.5272 20 80.5512 19.488 79.9912 18.464C79.5912 19.056 79.0152 19.464 78.2632 19.688C77.5112 19.896 76.6392 20 75.6472 20C75.5832 20 75.5352 19.912 75.5032 19.736C75.4552 19.544 75.4312 19.312 75.4312 19.04V16.952C75.4312 16.696 75.4552 16.472 75.5032 16.28C75.5352 16.088 75.5832 15.992 75.6472 15.992C76.7992 15.992 77.7752 15.848 78.5752 15.56V12.2H81.3352L81.3112 14.744C81.2952 15.192 81.3832 15.512 81.5752 15.704C81.7832 15.896 82.0952 15.992 82.5112 15.992C83.1832 15.992 83.7912 15.896 84.3352 15.704L84.1432 11.336L86.9032 11.24L86.9992 15.8C87.2872 15.928 87.6792 15.992 88.1752 15.992C89.0232 15.992 89.7032 15.888 90.2152 15.68L89.6392 10.28L92.6872 9.752ZM113.912 15.992C113.976 15.992 114.032 16.088 114.08 16.28C114.128 16.472 114.152 16.696 114.152 16.952V19.04C114.152 19.296 114.128 19.52 114.08 19.712C114.032 19.904 113.976 20 113.912 20H112.952C112.968 20.08 112.976 20.216 112.976 20.408C112.976 21.72 112.576 22.816 111.776 23.696C110.992 24.592 109.936 25.256 108.608 25.688C107.296 26.12 105.84 26.336 104.24 26.336C102 26.336 100.392 25.912 99.4164 25.064C98.4404 24.216 97.9524 22.944 97.9524 21.248C97.9524 20.672 98.1364 19.304 98.5044 17.144L99.1044 13.328L101.552 13.856C100.928 17.6 100.616 19.864 100.616 20.648C100.616 21.272 100.976 21.704 101.696 21.944C102.432 22.2 103.28 22.328 104.24 22.328C105.744 22.328 106.992 22.224 107.984 22.016C108.976 21.824 109.776 21.496 110.384 21.032C110.416 20.6 110.232 20.32 109.832 20.192C109.432 20.064 108.744 20 107.768 20H106.544L107.216 15.992H113.912ZM122.155 15.992C122.219 15.992 122.267 16.088 122.299 16.28C122.347 16.472 122.371 16.696 122.371 16.952V19.04C122.371 19.312 122.347 19.544 122.299 19.736C122.267 19.912 122.219 20 122.155 20C120.763 20 119.739 19.864 119.083 19.592C118.427 19.304 117.995 18.832 117.787 18.176C117.467 18.848 116.947 19.32 116.227 19.592C115.507 19.864 114.419 20 112.963 20C112.899 20 112.851 19.912 112.819 19.736C112.771 19.544 112.747 19.312 112.747 19.04V16.952C112.747 16.696 112.771 16.472 112.819 16.28C112.851 16.088 112.899 15.992 112.963 15.992C114.531 15.992 115.683 15.8 116.419 15.416L115.891 11.12L118.939 10.784L119.155 15.56C119.859 15.848 120.859 15.992 122.155 15.992ZM115.003 4.208L117.403 6.152L115.459 8.552L113.059 6.608L115.003 4.208ZM119.011 4.208L121.411 6.152L119.467 8.552L117.067 6.608L119.011 4.208ZM138.23 9.752C138.39 12.04 138.47 14.072 138.47 15.848C138.47 16.76 138.278 17.528 137.894 18.152C137.526 18.776 137.03 19.24 136.406 19.544C135.798 19.848 135.142 20 134.438 20C133.638 20 132.958 19.888 132.398 19.664C131.838 19.44 131.422 19.048 131.15 18.488C130.862 19.064 130.454 19.464 129.926 19.688C129.414 19.896 128.926 20 128.462 20C127.07 20 126.094 19.488 125.534 18.464C125.134 19.056 124.558 19.464 123.806 19.688C123.054 19.896 122.182 20 121.19 20C121.126 20 121.078 19.912 121.046 19.736C120.998 19.544 120.974 19.312 120.974 19.04V16.952C120.974 16.696 120.998 16.472 121.046 16.28C121.078 16.088 121.126 15.992 121.19 15.992C122.342 15.992 123.318 15.848 124.118 15.56V12.2H126.878L126.854 14.744C126.838 15.192 126.926 15.512 127.118 15.704C127.326 15.896 127.638 15.992 128.054 15.992C128.726 15.992 129.334 15.896 129.878 15.704L129.686 11.336L132.446 11.24L132.542 15.8C132.83 15.928 133.222 15.992 133.718 15.992C134.566 15.992 135.246 15.888 135.758 15.68L135.182 10.28L138.23 9.752ZM130.19 0.967999L132.47 2.816L130.622 5.12L128.318 3.272L130.19 0.967999ZM128.366 5.024L130.67 6.872L128.822 9.176L126.518 7.328L128.366 5.024ZM132.182 5.024L134.486 6.872L132.638 9.176L130.334 7.328L132.182 5.024ZM140.489 2.216L143.657 1.688L143.705 20L141.065 20.336L140.489 2.216ZM158.682 15.992C158.746 15.992 158.794 16.088 158.826 16.28C158.874 16.472 158.898 16.696 158.898 16.952V19.04C158.898 19.312 158.874 19.544 158.826 19.736C158.794 19.912 158.746 20 158.682 20H158.082C156.354 20 155.298 19.336 154.914 18.008C154.77 18.44 154.618 18.76 154.458 18.968C154.314 19.16 154.114 19.312 153.858 19.424C153.362 19.664 152.706 19.88 151.89 20.072C151.09 20.264 150.322 20.36 149.586 20.36C148.162 20.36 147.122 20.08 146.466 19.52C145.81 18.96 145.482 17.976 145.482 16.568C145.482 16.264 145.514 15.568 145.578 14.48L148.026 14.672V15.296C148.026 15.632 148.074 15.872 148.17 16.016C148.282 16.16 148.474 16.256 148.746 16.304C149.018 16.336 149.466 16.352 150.09 16.352C151.402 16.352 152.554 16.16 153.546 15.776L151.602 8.552L154.578 6.944L155.994 14.096C156.122 14.736 156.258 15.184 156.402 15.44C156.562 15.68 156.786 15.832 157.074 15.896C157.378 15.96 157.914 15.992 158.682 15.992ZM170.428 15.992C170.492 15.992 170.548 16.088 170.596 16.28C170.644 16.472 170.668 16.696 170.668 16.952V19.04C170.668 19.296 170.644 19.52 170.596 19.712C170.548 19.904 170.492 20 170.428 20C169.052 20 168.124 19.96 167.644 19.88C167.82 20.04 167.948 20.264 168.028 20.552C168.108 20.84 168.148 21.144 168.148 21.464V23.024C168.148 23.616 167.86 24.16 167.284 24.656C166.916 24.976 166.596 25.2 166.324 25.328C166.052 25.456 165.756 25.52 165.436 25.52C163.628 25.52 162.268 25.048 161.356 24.104C160.444 23.176 159.764 21.808 159.316 20H157.732C157.668 20 157.62 19.912 157.588 19.736C157.54 19.544 157.516 19.312 157.516 19.04V16.952C157.516 16.696 157.54 16.472 157.588 16.28C157.62 16.088 157.668 15.992 157.732 15.992H159.916C160.172 14.856 160.556 13.8 161.068 12.824C161.596 11.832 162.204 11.04 162.892 10.448C163.596 9.856 164.324 9.56 165.076 9.56H167.02L167.164 15.992H170.428ZM164.572 12.344C164.028 12.616 163.532 13.176 163.084 14.024C162.652 14.856 162.348 15.72 162.172 16.616H163.348C164.036 16.616 164.492 16.656 164.716 16.736L164.572 12.344ZM165.604 21.464C165.604 20.776 165.428 20.28 165.076 19.976C164.74 19.656 164.156 19.496 163.324 19.496H161.956C162.116 20.52 162.492 21.256 163.084 21.704C163.692 22.168 164.532 22.384 165.604 22.352V21.464ZM176.099 9.752C176.259 12.216 176.339 14.232 176.339 15.8C176.339 16.408 176.219 16.984 175.979 17.528C175.739 18.056 175.363 18.496 174.851 18.848C173.715 19.616 171.923 20 169.475 20C169.411 20 169.363 19.912 169.331 19.736C169.283 19.544 169.259 19.312 169.259 19.04V16.952C169.259 16.696 169.283 16.472 169.331 16.28C169.363 16.088 169.411 15.992 169.475 15.992C170.435 15.992 171.243 15.952 171.899 15.872C172.555 15.792 173.123 15.64 173.603 15.416L173.027 10.28L176.099 9.752ZM171.563 22.256L174.251 24.416L172.187 26.912L169.499 24.752L171.563 22.256ZM199.063 9.752C199.223 12.12 199.303 14.144 199.303 15.824C199.303 16.592 199.167 17.232 198.895 17.744C198.623 18.256 198.151 18.664 197.479 18.968C196.727 19.32 195.695 19.6 194.383 19.808C193.087 20.016 191.551 20.12 189.775 20.12C187.983 20.12 186.479 19.984 185.263 19.712C184.047 19.44 183.087 18.936 182.383 18.2C181.695 17.448 181.351 16.408 181.351 15.08C181.351 14.744 181.415 14.168 181.543 13.352C181.671 12.536 181.871 11.336 182.143 9.752L184.591 10.28C184.207 12.456 184.015 13.816 184.015 14.36C184.015 14.84 184.175 15.208 184.495 15.464C184.815 15.704 185.359 15.872 186.127 15.968C186.911 16.064 188.063 16.112 189.583 16.112C192.559 16.112 194.895 15.912 196.591 15.512L196.015 10.28L199.063 9.752ZM188.287 5.84L190.687 7.784L188.743 10.184L186.343 8.24L188.287 5.84ZM192.295 5.84L194.695 7.784L192.751 10.184L190.351 8.24L192.295 5.84ZM200.906 16.76C202.362 16.68 203.834 16.488 205.322 16.184C206.826 15.864 207.922 15.512 208.61 15.128L207.842 2.216L211.01 1.688L211.25 15.104C211.266 16.4 210.77 17.456 209.762 18.272C208.754 19.088 207.506 19.688 206.018 20.072C204.53 20.456 203.002 20.688 201.434 20.768L200.906 16.76ZM203.402 15.392C203.402 13.696 203.21 11.96 202.826 10.184C202.442 8.408 201.65 6.712 200.45 5.096L202.778 3.08C204.122 5 204.986 6.928 205.37 8.864C205.77 10.8 205.97 12.792 205.97 14.84L203.402 15.392ZM224.066 15.992C224.114 15.992 224.162 16.096 224.21 16.304C224.258 16.496 224.282 16.712 224.282 16.952V19.04C224.282 19.296 224.258 19.52 224.21 19.712C224.162 19.904 224.114 20 224.066 20H222.074C221.674 21.584 220.882 23.016 219.698 24.296C218.53 25.592 216.898 26.664 214.802 27.512L212.714 24.464C214.17 23.952 215.466 23.272 216.602 22.424C217.754 21.592 218.618 20.744 219.194 19.88C218.554 19.96 217.914 20 217.274 20C216.57 20 216.042 19.976 215.69 19.928C215.338 19.864 215.042 19.752 214.802 19.592C214.562 19.416 214.306 19.144 214.034 18.776C213.762 18.392 213.578 18.08 213.482 17.84C213.402 17.6 213.362 17.272 213.362 16.856C213.362 15.688 213.53 14.608 213.866 13.616C214.202 12.608 214.714 11.8 215.402 11.192C216.09 10.584 216.946 10.28 217.97 10.28C219.186 10.28 220.178 10.816 220.946 11.888C221.714 12.944 222.178 14.312 222.338 15.992H224.066ZM215.93 16.544C216.682 16.656 217.33 16.712 217.874 16.712C218.658 16.712 219.29 16.664 219.77 16.568C219.77 15.576 219.586 14.832 219.218 14.336C218.85 13.824 218.362 13.568 217.754 13.568C217.21 13.568 216.77 13.832 216.434 14.36C216.098 14.872 215.93 15.6 215.93 16.544ZM245.737 15.992C245.801 15.992 245.849 16.088 245.881 16.28C245.929 16.472 245.953 16.696 245.953 16.952V19.04C245.953 19.312 245.929 19.544 245.881 19.736C245.849 19.912 245.801 20 245.737 20C244.649 20 243.793 19.872 243.169 19.616C242.561 19.36 242.065 18.92 241.681 18.296C240.897 18.856 239.873 19.28 238.609 19.568C237.361 19.856 235.921 20 234.289 20C231.217 20 229.057 19.44 227.809 18.32C227.345 18.928 226.681 19.36 225.817 19.616C224.969 19.872 224.065 20 223.105 20C223.041 20 222.993 19.912 222.961 19.736C222.913 19.544 222.889 19.312 222.889 19.04V16.952C222.889 16.696 222.913 16.472 222.961 16.28C222.993 16.088 223.041 15.992 223.105 15.992C223.873 15.992 224.481 15.968 224.929 15.92C225.393 15.872 225.817 15.76 226.201 15.584L226.105 11.456H228.865L228.745 15.344C228.841 15.408 228.985 15.472 229.177 15.536C229.369 15.584 229.561 15.616 229.753 15.632C230.281 14.736 231.001 13.736 231.913 12.632C232.825 11.528 233.841 10.56 234.961 9.728C236.097 8.896 237.185 8.48 238.225 8.48C239.937 8.48 241.217 9.016 242.065 10.088C242.929 11.144 243.361 12.712 243.361 14.792C243.361 15.096 243.353 15.32 243.337 15.464C243.497 15.64 243.753 15.776 244.105 15.872C244.473 15.952 245.017 15.992 245.737 15.992ZM234.001 15.992C235.217 15.992 236.345 15.936 237.385 15.824C238.425 15.712 239.497 15.496 240.601 15.176C240.601 14.088 240.401 13.264 240.001 12.704C239.601 12.144 239.041 11.864 238.321 11.864C237.537 11.864 236.633 12.232 235.609 12.968C234.601 13.688 233.569 14.68 232.513 15.944C233.025 15.976 233.521 15.992 234.001 15.992ZM262.977 15.992C263.041 15.992 263.089 16.088 263.121 16.28C263.169 16.472 263.193 16.696 263.193 16.952V19.04C263.193 19.312 263.169 19.544 263.121 19.736C263.089 19.912 263.041 20 262.977 20H258.945C257.857 20 256.809 19.848 255.801 19.544C254.793 19.24 254.137 18.656 253.833 17.792L253.137 18.176C250.849 19.392 248.305 20 245.505 20H244.785C244.721 20 244.673 19.912 244.641 19.736C244.593 19.544 244.569 19.312 244.569 19.04V16.952C244.569 16.696 244.593 16.472 244.641 16.28C244.673 16.088 244.721 15.992 244.785 15.992H245.553C247.889 15.992 249.913 15.672 251.625 15.032C252.089 14.872 252.681 14.608 253.401 14.24C253.913 13.984 254.337 13.784 254.673 13.64C255.025 13.48 255.385 13.36 255.753 13.28C254.985 13.152 254.001 12.872 252.801 12.44C252.161 12.216 251.633 12.048 251.217 11.936C250.801 11.824 250.425 11.768 250.089 11.768C249.641 11.768 249.321 11.896 249.129 12.152C248.953 12.392 248.825 12.768 248.745 13.28L246.393 12.872C246.857 9.816 248.025 8.288 249.897 8.288C250.505 8.288 251.129 8.384 251.769 8.576C252.409 8.768 253.329 9.08 254.529 9.512C255.905 10.04 257.097 10.448 258.105 10.736C259.129 11.024 260.193 11.168 261.297 11.168L260.577 14.528C259.281 14.768 257.865 15.344 256.329 16.256L257.241 16.184C257.433 16.168 257.969 16.136 258.849 16.088C259.729 16.024 260.609 15.992 261.489 15.992H262.977ZM269.765 10.496C270.565 10.496 271.253 10.76 271.829 11.288C272.421 11.8 272.869 12.504 273.173 13.4C273.493 14.296 273.653 15.296 273.653 16.4C273.653 17.312 273.533 18.216 273.293 19.112C273.245 19.336 273.133 19.56 272.957 19.784C272.797 19.992 272.509 20.248 272.093 20.552C271.821 20.776 271.581 20.936 271.373 21.032C271.165 21.128 270.965 21.176 270.773 21.176C270.629 21.176 270.453 21.136 270.245 21.056L265.757 19.064C265.421 19.384 264.989 19.624 264.461 19.784C263.949 19.928 263.301 20 262.517 20H262.013C261.949 20 261.901 19.912 261.869 19.736C261.821 19.544 261.797 19.312 261.797 19.04V16.952C261.797 16.696 261.821 16.472 261.869 16.28C261.901 16.088 261.949 15.992 262.013 15.992H262.853C263.381 15.992 263.765 15.96 264.005 15.896C264.261 15.832 264.453 15.712 264.581 15.536C264.709 15.36 264.869 15.064 265.061 14.648C265.701 13.16 266.373 12.096 267.077 11.456C267.781 10.816 268.677 10.496 269.765 10.496ZM270.725 17.528C270.837 17.192 270.893 16.76 270.893 16.232C270.893 15.544 270.765 14.984 270.509 14.552C270.253 14.12 269.869 13.904 269.357 13.904C268.925 13.904 268.565 14.048 268.277 14.336C268.005 14.608 267.629 15.128 267.149 15.896L270.725 17.528Z" fill="#414141"/>
</svg>
