<svg width="391" height="44" viewBox="0 0 391 44" fill="none" xmlns="http://www.w3.org/2000/svg">
<path d="M26.98 16.628C27.22 20.18 27.34 23.216 27.34 25.736C27.34 26.888 27.136 27.848 26.728 28.616C26.32 29.384 25.612 29.996 24.604 30.452C23.476 30.98 21.928 31.4 19.96 31.712C18.016 32.024 15.712 32.18 13.048 32.18C10.36 32.18 8.104 31.976 6.28 31.568C4.456 31.16 3.016 30.404 1.96 29.3C0.928 28.172 0.412 26.612 0.412 24.62C0.412 24.116 0.508 23.252 0.7 22.028C0.892 20.804 1.192 19.004 1.6 16.628L5.272 17.42C4.696 20.684 4.408 22.724 4.408 23.54C4.408 24.26 4.648 24.812 5.128 25.196C5.608 25.556 6.424 25.808 7.576 25.952C8.752 26.096 10.48 26.168 12.76 26.168C17.224 26.168 20.728 25.868 23.272 25.268L22.408 17.42L26.98 16.628ZM12.616 35.528L16.648 38.768L13.552 42.512L9.52 39.272L12.616 35.528ZM30.3932 10.364L35.1452 9.572L35.2172 32L31.2572 32.504L30.3932 10.364ZM36.6212 7.376C35.0132 7.376 33.5252 7.244 32.1572 6.98C31.5332 6.884 31.1372 6.836 30.9692 6.836C30.5852 6.836 30.2852 6.956 30.0692 7.196C29.8532 7.412 29.6492 7.88 29.4572 8.6L26.2892 7.808C26.6252 6.344 26.9972 5.216 27.4052 4.424C27.8132 3.632 28.2932 3.08 28.8452 2.768C29.4212 2.432 30.1292 2.264 30.9692 2.264C31.4252 2.264 32.0732 2.324 32.9132 2.444C34.6412 2.66 36.1293 2.768 37.3773 2.768H39.5373L38.6013 7.376H36.6212ZM63.2913 25.988C63.3873 25.988 63.4713 26.132 63.5433 26.42C63.6153 26.708 63.6513 27.044 63.6513 27.428V30.56C63.6513 30.944 63.6153 31.28 63.5433 31.568C63.4713 31.856 63.3873 32 63.2913 32H62.8233C61.8153 32 60.8913 31.796 60.0513 31.388C59.2353 30.956 58.5633 30.26 58.0353 29.3C58.1553 31.46 58.2153 33.152 58.2153 34.376C58.2153 35.792 57.5673 36.956 56.2713 37.868C54.9753 38.78 53.4153 39.44 51.5913 39.848C49.7913 40.256 48.1113 40.46 46.5513 40.46C43.1913 40.46 40.7793 39.824 39.3153 38.552C37.8513 37.28 37.1193 35.384 37.1193 32.864C37.1193 31.976 37.3953 29.936 37.9473 26.744L38.8473 20.948L42.5193 21.74C41.5833 27.356 41.1153 30.764 41.1153 31.964C41.1153 32.9 41.6553 33.548 42.7353 33.908C43.8153 34.268 45.0873 34.448 46.5513 34.448C48.1833 34.448 49.6233 34.352 50.8713 34.16C52.1193 33.968 53.1993 33.644 54.1113 33.188L52.5633 19.76L57.1713 18.824L57.7113 23.252C57.8073 24.14 58.0233 24.776 58.3593 25.16C58.6953 25.544 59.1633 25.784 59.7633 25.88C60.3873 25.952 61.4073 25.988 62.8233 25.988H63.2913ZM46.6233 10.904L50.6553 14.144L47.5593 17.888L43.5273 14.648L46.6233 10.904ZM84.3494 25.988C84.4454 25.988 84.5294 26.132 84.6014 26.42C84.6734 26.708 84.7094 27.044 84.7094 27.428V30.56C84.7094 30.944 84.6734 31.28 84.6014 31.568C84.5294 31.856 84.4454 32 84.3494 32C83.2214 32 82.1534 31.796 81.1454 31.388C80.1374 30.956 79.3694 30.296 78.8414 29.408L78.6614 30.524C78.5894 30.956 78.4454 31.328 78.2294 31.64C78.0134 31.952 77.5934 32.348 76.9694 32.828C76.5614 33.164 76.2014 33.404 75.8894 33.548C75.5774 33.692 75.2774 33.764 74.9894 33.764C74.7014 33.764 74.4374 33.704 74.1974 33.584L67.4654 30.596C66.9614 31.076 66.3134 31.436 65.5214 31.676C64.7534 31.892 63.7814 32 62.6054 32H61.8494C61.7534 32 61.6814 31.868 61.6334 31.604C61.5614 31.316 61.5254 30.968 61.5254 30.56V27.428C61.5254 27.044 61.5614 26.708 61.6334 26.42C61.6814 26.132 61.7534 25.988 61.8494 25.988H63.1094C63.9014 25.988 64.4774 25.94 64.8374 25.844C65.2214 25.748 65.5094 25.568 65.7014 25.304C65.8934 25.04 66.1334 24.596 66.4214 23.972C67.3814 21.74 68.3894 20.144 69.4454 19.184C70.5014 18.224 71.8454 17.744 73.4774 17.744C75.8294 17.744 77.5574 19.304 78.6614 22.424C78.9494 23.312 79.2614 23.996 79.5974 24.476C79.9334 24.956 80.4614 25.328 81.1814 25.592C81.9254 25.856 82.9814 25.988 84.3494 25.988ZM74.9174 28.292C75.0854 27.788 75.1694 27.14 75.1694 26.348C75.1694 25.316 74.9774 24.476 74.5934 23.828C74.2094 23.18 73.6334 22.856 72.8654 22.856C72.2174 22.856 71.6774 23.072 71.2454 23.504C70.8374 23.912 70.2734 24.692 69.5534 25.844L74.9174 28.292ZM92.8454 16.628C93.0854 20.324 93.2054 23.348 93.2054 25.7C93.2054 26.612 93.0254 27.476 92.6654 28.292C92.3054 29.084 91.7414 29.744 90.9734 30.272C89.2694 31.424 86.5814 32 82.9094 32C82.8134 32 82.7414 31.868 82.6934 31.604C82.6214 31.316 82.5854 30.968 82.5854 30.56V27.428C82.5854 27.044 82.6214 26.708 82.6934 26.42C82.7414 26.132 82.8134 25.988 82.9094 25.988C84.3494 25.988 85.5614 25.928 86.5454 25.808C87.5294 25.688 88.3814 25.46 89.1014 25.124L88.2374 17.42L92.8454 16.628ZM83.1614 35.384L86.7614 38.3L83.8454 41.9L80.2454 38.984L83.1614 35.384ZM89.1734 35.384L92.7734 38.3L89.8574 41.9L86.2574 38.984L89.1734 35.384ZM96.2128 5.324L100.965 4.532L101.037 32L97.0768 32.504L96.2128 5.324ZM117.644 40.46C114.284 40.46 111.872 39.824 110.408 38.552C108.944 37.28 108.212 35.384 108.212 32.864C108.212 31.976 108.488 29.936 109.04 26.744L109.94 20.948L113.612 21.74C112.676 27.356 112.208 30.764 112.208 31.964C112.208 32.9 112.748 33.548 113.828 33.908C114.908 34.268 116.18 34.448 117.644 34.448C119.876 34.448 121.736 34.292 123.224 33.98C124.736 33.692 125.936 33.212 126.824 32.54C126.896 32.252 126.932 32.012 126.932 31.82C126.932 31.484 126.836 31.208 126.644 30.992C126.476 30.776 126.236 30.656 125.924 30.632C124.148 30.488 122.78 30.308 121.82 30.092C120.884 29.876 120.152 29.528 119.624 29.048C119.12 28.544 118.868 27.812 118.868 26.852C118.868 24.908 119.252 22.928 120.02 20.912C120.812 18.896 121.832 17.228 123.08 15.908C124.328 14.588 125.6 13.928 126.896 13.928C127.928 13.928 128.876 14.252 129.74 14.9C130.604 15.548 131.516 16.664 132.476 18.248L129.92 20.948C128.84 19.868 127.844 19.328 126.932 19.328C125.972 19.328 125.156 19.808 124.484 20.768C123.812 21.704 123.32 22.964 123.008 24.548C124.928 24.764 126.38 25.04 127.364 25.376C128.372 25.688 129.188 26.312 129.812 27.248C130.436 28.184 130.748 29.6 130.748 31.496C130.748 33.488 130.148 35.156 128.948 36.5C127.772 37.844 126.188 38.84 124.196 39.488C122.228 40.136 120.044 40.46 117.644 40.46ZM154.056 25.988C154.152 25.988 154.224 26.132 154.272 26.42C154.344 26.708 154.38 27.044 154.38 27.428V30.56C154.38 30.968 154.344 31.316 154.272 31.604C154.224 31.868 154.152 32 154.056 32H153.156C150.564 32 148.98 31.004 148.404 29.012C148.188 29.66 147.96 30.14 147.72 30.452C147.504 30.74 147.204 30.968 146.82 31.136C146.076 31.496 145.092 31.82 143.868 32.108C142.668 32.396 141.516 32.54 140.412 32.54C138.276 32.54 136.716 32.12 135.732 31.28C134.748 30.44 134.256 28.964 134.256 26.852C134.256 26.396 134.304 25.352 134.4 23.72L138.072 24.008V24.944C138.072 25.448 138.144 25.808 138.288 26.024C138.456 26.24 138.744 26.384 139.152 26.456C139.56 26.504 140.232 26.528 141.168 26.528C143.136 26.528 144.864 26.24 146.352 25.664L143.436 14.828L147.9 12.416L150.024 23.144C150.216 24.104 150.42 24.776 150.636 25.16C150.876 25.52 151.212 25.748 151.644 25.844C152.1 25.94 152.904 25.988 154.056 25.988ZM166.419 25.988C166.515 25.988 166.587 26.132 166.635 26.42C166.707 26.708 166.743 27.044 166.743 27.428V30.56C166.743 30.968 166.707 31.316 166.635 31.604C166.587 31.868 166.515 32 166.419 32C164.331 32 162.795 31.796 161.811 31.388C160.827 30.956 160.179 30.248 159.867 29.264C159.387 30.272 158.607 30.98 157.527 31.388C156.447 31.796 154.815 32 152.631 32C152.535 32 152.463 31.868 152.415 31.604C152.343 31.316 152.307 30.968 152.307 30.56V27.428C152.307 27.044 152.343 26.708 152.415 26.42C152.463 26.132 152.535 25.988 152.631 25.988C154.983 25.988 156.711 25.7 157.815 25.124L157.023 18.68L161.595 18.176L161.919 25.34C162.975 25.772 164.475 25.988 166.419 25.988ZM155.367 35.384L158.967 38.3L156.051 41.9L152.451 38.984L155.367 35.384ZM161.379 35.384L164.979 38.3L162.063 41.9L158.463 38.984L161.379 35.384ZM175.269 25.7C175.293 26.588 175.125 27.44 174.765 28.256C174.405 29.072 173.829 29.744 173.037 30.272C171.333 31.424 168.645 32 164.973 32C164.877 32 164.805 31.868 164.757 31.604C164.685 31.316 164.649 30.968 164.649 30.56V27.428C164.649 27.044 164.685 26.708 164.757 26.42C164.805 26.132 164.877 25.988 164.973 25.988C166.437 25.988 167.661 25.928 168.645 25.808C169.653 25.688 170.517 25.448 171.237 25.088L170.157 5.324L174.909 4.532L175.269 25.7ZM194.472 25.988C194.544 25.988 194.616 26.144 194.688 26.456C194.76 26.744 194.796 27.068 194.796 27.428V30.56C194.796 30.944 194.76 31.28 194.688 31.568C194.616 31.856 194.544 32 194.472 32H191.484C190.884 34.376 189.696 36.524 187.92 38.444C186.168 40.388 183.72 41.996 180.576 43.268L177.444 38.696C179.628 37.928 181.572 36.908 183.276 35.636C185.004 34.388 186.3 33.116 187.164 31.82C186.204 31.94 185.244 32 184.284 32C183.228 32 182.436 31.964 181.908 31.892C181.38 31.796 180.936 31.628 180.576 31.388C180.216 31.124 179.832 30.716 179.424 30.164C179.016 29.588 178.74 29.12 178.596 28.76C178.476 28.4 178.416 27.908 178.416 27.284C178.416 25.532 178.668 23.912 179.172 22.424C179.676 20.912 180.444 19.7 181.476 18.788C182.508 17.876 183.792 17.42 185.328 17.42C187.152 17.42 188.64 18.224 189.792 19.832C190.944 21.416 191.64 23.468 191.88 25.988H194.472ZM182.268 26.816C183.396 26.984 184.368 27.068 185.184 27.068C186.36 27.068 187.308 26.996 188.028 26.852C188.028 25.364 187.752 24.248 187.2 23.504C186.648 22.736 185.916 22.352 185.004 22.352C184.188 22.352 183.528 22.748 183.024 23.54C182.52 24.308 182.268 25.4 182.268 26.816ZM202.966 16.628C203.206 20.324 203.326 23.348 203.326 25.7C203.326 26.612 203.146 27.476 202.786 28.292C202.426 29.084 201.862 29.744 201.094 30.272C199.39 31.424 196.702 32 193.03 32C192.934 32 192.862 31.868 192.814 31.604C192.742 31.316 192.706 30.968 192.706 30.56V27.428C192.706 27.044 192.742 26.708 192.814 26.42C192.862 26.132 192.934 25.988 193.03 25.988C194.47 25.988 195.682 25.928 196.666 25.808C197.65 25.688 198.502 25.46 199.222 25.124L198.358 17.42L202.966 16.628ZM196.738 6.764L200.338 9.68L197.422 13.28L193.822 10.364L196.738 6.764ZM202.75 6.764L206.35 9.68L203.434 13.28L199.834 10.364L202.75 6.764ZM217.359 17.42C218.751 17.42 219.939 17.888 220.923 18.824C221.931 19.76 222.699 21.032 223.227 22.64C223.755 24.224 224.019 25.976 224.019 27.896C224.019 31.16 223.131 34.124 221.355 36.788C219.579 39.476 216.663 41.636 212.607 43.268L209.475 38.696C211.659 37.928 213.603 36.908 215.307 35.636C217.035 34.388 218.331 33.116 219.195 31.82C218.235 31.94 217.275 32 216.315 32C215.259 32 214.467 31.964 213.939 31.892C213.411 31.796 212.967 31.628 212.607 31.388C212.247 31.124 211.863 30.716 211.455 30.164C211.047 29.588 210.771 29.12 210.627 28.76C210.507 28.4 210.447 27.908 210.447 27.284C210.447 25.532 210.699 23.912 211.203 22.424C211.707 20.912 212.475 19.7 213.507 18.788C214.539 17.876 215.823 17.42 217.359 17.42ZM214.299 26.816C215.427 26.984 216.399 27.068 217.215 27.068C218.391 27.068 219.339 26.996 220.059 26.852C220.059 25.364 219.783 24.248 219.231 23.504C218.679 22.736 217.947 22.352 217.035 22.352C216.219 22.352 215.559 22.748 215.055 23.54C214.551 24.308 214.299 25.4 214.299 26.816ZM255.528 25.988C255.624 25.988 255.708 26.132 255.78 26.42C255.852 26.708 255.888 27.044 255.888 27.428V30.56C255.888 30.944 255.852 31.28 255.78 31.568C255.708 31.856 255.624 32 255.528 32H254.088C254.112 32.12 254.124 32.324 254.124 32.612C254.124 34.58 253.524 36.224 252.324 37.544C251.148 38.888 249.564 39.884 247.572 40.532C245.604 41.18 243.42 41.504 241.02 41.504C237.66 41.504 235.248 40.868 233.784 39.596C232.32 38.324 231.588 36.416 231.588 33.872C231.588 33.008 231.864 30.956 232.416 27.716L233.316 21.992L236.988 22.784C236.052 28.4 235.584 31.796 235.584 32.972C235.584 33.908 236.124 34.556 237.204 34.916C238.308 35.3 239.58 35.492 241.02 35.492C243.276 35.492 245.148 35.336 246.636 35.024C248.124 34.736 249.324 34.244 250.236 33.548C250.284 32.9 250.008 32.48 249.408 32.288C248.808 32.096 247.776 32 246.312 32H244.476L245.484 25.988H255.528ZM261.771 14.432C262.707 14.432 263.679 14.6 264.687 14.936C265.719 15.248 267.063 15.74 268.719 16.412C270.783 17.252 272.571 17.9 274.083 18.356C275.619 18.812 277.215 19.04 278.871 19.04L277.791 24.728C276.159 24.896 274.635 25.28 273.219 25.88C271.827 26.48 270.255 27.272 268.503 28.256C267.639 28.736 267.015 29.072 266.631 29.264C263.199 31.088 259.383 32 255.183 32H254.103C254.007 32 253.935 31.868 253.887 31.604C253.815 31.316 253.779 30.968 253.779 30.56V27.428C253.779 27.044 253.815 26.708 253.887 26.42C253.935 26.132 254.007 25.988 254.103 25.988H255.255C258.063 25.988 261.099 25.508 264.363 24.548C265.203 24.308 266.271 23.912 267.567 23.36C268.911 22.736 270.003 22.34 270.843 22.172C269.643 21.956 268.179 21.5 266.451 20.804C265.371 20.42 264.495 20.132 263.823 19.94C263.175 19.748 262.587 19.652 262.059 19.652C261.387 19.652 260.907 19.844 260.619 20.228C260.355 20.588 260.163 21.152 260.043 21.92L256.515 21.308C257.211 16.724 258.963 14.432 261.771 14.432ZM281.364 5.324L286.116 4.532L286.188 32L282.228 32.504L281.364 5.324ZM301.634 25.988C301.73 25.988 301.802 26.132 301.85 26.42C301.922 26.708 301.958 27.044 301.958 27.428V30.56C301.958 30.968 301.922 31.316 301.85 31.604C301.802 31.868 301.73 32 301.634 32H300.446C299.75 32 299.09 31.868 298.466 31.604C297.842 31.316 297.314 30.908 296.882 30.38C296.762 32.996 295.838 35.336 294.11 37.4C292.406 39.464 289.598 41.42 285.686 43.268L282.518 38.696C285.758 37.256 288.122 35.924 289.61 34.7C291.098 33.5 292.166 32.228 292.814 30.884L291.302 19.904L296.054 18.932L296.594 23.72C296.69 24.584 297.038 25.184 297.638 25.52C298.238 25.832 299.174 25.988 300.446 25.988H301.634ZM316.47 14.72C319.038 14.72 320.958 15.524 322.23 17.132C323.526 18.716 324.174 21.068 324.174 24.188C324.174 26.012 323.778 27.368 322.986 28.256C321.978 29.456 320.394 30.38 318.234 31.028C316.098 31.676 313.542 32 310.566 32H300.198C300.102 32 300.03 31.868 299.982 31.604C299.91 31.316 299.874 30.968 299.874 30.56V27.428C299.874 27.044 299.91 26.708 299.982 26.42C300.03 26.132 300.102 25.988 300.198 25.988H303.51C303.63 25.82 303.822 25.556 304.086 25.196C304.35 24.812 304.566 24.464 304.734 24.152C304.902 23.912 305.01 23.576 305.058 23.144C305.13 22.712 305.166 21.92 305.166 20.768C305.166 18.968 305.058 13.82 304.842 5.324L309.27 4.532L309.342 16.016C309.342 17.264 309.27 18.2 309.126 18.824C311.862 16.088 314.31 14.72 316.47 14.72ZM310.134 25.988C311.958 25.988 313.65 25.904 315.21 25.736C316.794 25.568 318.402 25.244 320.034 24.764C320.034 23.132 319.734 21.896 319.134 21.056C318.534 20.216 317.694 19.796 316.614 19.796C315.438 19.796 314.082 20.348 312.546 21.452C311.01 22.556 309.462 24.068 307.902 25.988H310.134ZM337.914 32.18C336.066 32.18 334.566 31.688 333.414 30.704C332.286 29.696 331.722 28.316 331.722 26.564C331.722 25.316 331.998 24.128 332.55 23C333.102 21.848 334.026 20.468 335.322 18.86L333.702 17.78L336.402 13.676C342.378 17.324 345.366 21.86 345.366 27.284C345.366 28.196 345.054 29.096 344.43 29.984C344.022 30.56 343.698 30.968 343.458 31.208C343.242 31.424 343.014 31.568 342.774 31.64C341.67 32 340.05 32.18 337.914 32.18ZM338.238 26.168C339.63 26.168 340.734 26.096 341.55 25.952C341.334 25.016 340.986 24.152 340.506 23.36C340.05 22.544 339.318 21.788 338.31 21.092C337.686 21.692 337.11 22.388 336.582 23.18C336.078 23.972 335.826 24.584 335.826 25.016C335.826 25.448 336.006 25.748 336.366 25.916C336.75 26.084 337.374 26.168 338.238 26.168ZM354.657 17.42C356.049 17.42 357.237 17.888 358.221 18.824C359.229 19.76 359.997 21.032 360.525 22.64C361.053 24.224 361.317 25.976 361.317 27.896C361.317 31.16 360.429 34.124 358.653 36.788C356.877 39.476 353.961 41.636 349.905 43.268L346.773 38.696C348.957 37.928 350.901 36.908 352.605 35.636C354.333 34.388 355.629 33.116 356.493 31.82C355.533 31.94 354.573 32 353.613 32C352.557 32 351.765 31.964 351.237 31.892C350.709 31.796 350.265 31.628 349.905 31.388C349.545 31.124 349.161 30.716 348.753 30.164C348.345 29.588 348.069 29.12 347.925 28.76C347.805 28.4 347.745 27.908 347.745 27.284C347.745 25.532 347.997 23.912 348.501 22.424C349.005 20.912 349.773 19.7 350.805 18.788C351.837 17.876 353.121 17.42 354.657 17.42ZM351.597 26.816C352.725 26.984 353.697 27.068 354.513 27.068C355.689 27.068 356.637 26.996 357.357 26.852C357.357 25.364 357.081 24.248 356.529 23.504C355.977 22.736 355.245 22.352 354.333 22.352C353.517 22.352 352.857 22.748 352.353 23.54C351.849 24.308 351.597 25.4 351.597 26.816ZM377.156 25.988C377.252 25.988 377.336 26.132 377.408 26.42C377.48 26.708 377.516 27.044 377.516 27.428V30.56C377.516 30.944 377.48 31.28 377.408 31.568C377.336 31.856 377.252 32 377.156 32H376.004C374.54 32 373.34 31.46 372.404 30.38C372.284 32.924 371.48 35.24 369.992 37.328C368.504 39.416 366.164 41.396 362.972 43.268L359.804 38.696C362.252 37.4 364.124 36.116 365.42 34.844C366.716 33.572 367.688 32.252 368.336 30.884L366.824 19.904L371.576 18.932L372.116 23.72C372.212 24.584 372.548 25.184 373.124 25.52C373.724 25.832 374.66 25.988 375.932 25.988H377.156ZM383.892 4.352C380.844 5.456 378.36 6.44 376.44 7.304L376.62 3.74C378.372 2.9 380.688 1.916 383.568 0.787998L383.892 4.352ZM382.776 12.92C385.032 14.912 386.688 17.048 387.744 19.328C388.824 21.608 389.364 23.888 389.364 26.168C389.364 27.632 388.872 28.796 387.888 29.66C386.928 30.5 385.464 31.1 383.496 31.46C381.528 31.82 378.936 32 375.72 32C375.624 32 375.552 31.868 375.504 31.604C375.432 31.316 375.396 30.968 375.396 30.56V27.428C375.396 27.044 375.432 26.708 375.504 26.42C375.552 26.132 375.624 25.988 375.72 25.988C379.92 25.988 383.088 25.772 385.224 25.34C384.984 23.492 384.072 21.572 382.488 19.58C380.928 17.588 378.852 15.8 376.26 14.216L376.44 9.392C378.552 8.408 380.664 7.532 382.776 6.764C384.912 5.996 387.228 5.252 389.724 4.532L390.372 9.464C387.42 10.208 384.576 11.12 381.84 12.2C382.368 12.608 382.68 12.848 382.776 12.92Z" fill="#414141"/>
</svg>
