<svg width="20" height="118" viewBox="0 0 20 118" fill="none" xmlns="http://www.w3.org/2000/svg">
<path d="M0.919999 110.6C0.919998 107.28 2.88 105.5 5.5 105.14L5.7 105.12L5.7 106.36L5.5 106.4C3.4 106.82 1.92 108.2 1.92 110.66C1.92 113.5 4.34 115.64 8.1 115.64C11.94 115.64 14.28 113.6 14.28 110.8C14.28 108.24 12.74 106.88 10.62 106.46L10.42 106.42L10.42 105.18L10.62 105.2C13.16 105.56 15.28 107.36 15.28 110.88C15.28 114.66 12.36 117.02 8.16 117.02C3.92 117.02 0.919999 114.38 0.919999 110.6ZM4.14 98.4319C4.14 95.0719 6.6 93.2919 9.72 93.2919C12.82 93.2919 15.28 95.0719 15.28 98.4319C15.28 101.792 12.82 103.572 9.72 103.572C6.6 103.572 4.14 101.792 4.14 98.4319ZM14.3 98.4319C14.3 96.2319 12.6 94.6519 9.72 94.6519C6.84 94.6519 5.14 96.2319 5.14 98.4319C5.14 100.632 6.84 102.212 9.72 102.212C12.6 102.212 14.3 100.632 14.3 98.4319ZM6.98 77.4075C7.52 77.3275 7.9 77.3075 8.76 77.3075L15 77.3075L15 78.5475L9.32 78.5475C8.46 78.5475 7.92 78.5675 7.38 78.6275C5.96 78.8075 5.14 79.5875 5.14 80.9875C5.14 82.4875 6.32 83.6475 9.46 83.6475L15 83.6475L15 84.8875L9.32 84.8875C8.46 84.8875 7.92 84.9075 7.38 84.9675C5.96 85.1475 5.14 85.9275 5.14 87.3275C5.14 88.8275 6.32 89.9875 9.46 89.9875L15 89.9875L15 91.2275L4.42 91.2275L4.42 89.9875L6.24 89.9875L5.06 89.3875C4.42 88.7675 4.14 87.9475 4.14 86.9475C4.14 85.2675 5.04 84.2275 6.4 83.8675L5.06 83.0475C4.42 82.4475 4.14 81.6075 4.14 80.6075C4.14 78.7075 5.3 77.6475 6.98 77.4075ZM1.3 73.8497C1.3 73.3697 1.66 73.0097 2.14 73.0097C2.6 73.0097 2.98 73.3697 2.98 73.8497C2.98 74.3097 2.6 74.6897 2.14 74.6897C1.66 74.6897 1.3 74.3097 1.3 73.8497ZM15 73.2297L15 74.4697L4.42 74.4697L4.42 73.2297L15 73.2297ZM7.3 61.7705C7.84 61.7305 8.22 61.7305 9.08 61.7305L15 61.7305L15 62.9705L9.22 62.9705C8.62 62.9705 8.16 62.9705 7.62 63.0105C6.18 63.1505 5.16 63.9505 5.16 65.7305C5.16 67.4905 6.44 69.0305 9.74 69.0305L15 69.0305L15 70.2705L4.42 70.2705L4.42 69.0305L6.46 69.0305L5.32 68.4705C4.46 67.6105 4.14 66.6705 4.14 65.4905C4.14 63.2505 5.36 61.9705 7.3 61.7705ZM4.4 50.0837L12.32 50.0837C13.36 50.0837 14.18 50.0837 14.8 50.1037C17.62 50.2037 19.28 51.9637 19.28 54.8637C19.28 57.4837 18.2 59.0837 15.9 59.3437L15.66 59.3637L15.66 58.1237L15.9 58.0837C17.46 57.9037 18.3 56.6437 18.3 54.8637C18.3 52.6237 16.96 51.4237 14.86 51.3437C14.28 51.3237 13.86 51.3237 13.3 51.3237L13.04 51.3237L14.2 52.0237C14.94 52.7637 15.28 53.8037 15.28 55.0237C15.28 57.9837 12.98 59.7437 9.84 59.7437C6 59.7437 4.14 57.3837 4.14 54.7037C4.14 53.6637 4.46 52.6437 5.1 51.9837L6.24 51.3237L4.4 51.3237L4.4 50.0837ZM14.3 54.8437C14.3 52.9637 13.16 51.3237 9.96 51.3237L9.16 51.3237C6.16 51.3237 5.14 53.1437 5.14 54.7037C5.14 56.8237 6.82 58.3837 9.68 58.3837C12.22 58.3837 14.3 57.1637 14.3 54.8437ZM0.919995 38.4439C0.919995 35.6839 2.66 34.2439 4.9 33.9839L4.9 35.2839C3.02 35.5239 1.92 36.7239 1.92 38.5439C1.92 40.1239 2.74 41.5839 4.38 41.5839C6.06 41.5839 6.68 40.6039 7.28 38.2439C8.04 35.2839 9.16 33.8039 11.44 33.8039C13.72 33.8039 15.28 35.8039 15.28 38.4439C15.28 41.2439 13.86 43.2639 11.2 43.5639L11.2 42.2439C13.18 41.9039 14.28 40.3839 14.28 38.4039C14.28 36.5839 13.24 35.1239 11.64 35.1239C9.86 35.1239 9.1 36.1639 8.46 38.7439C7.78 41.3639 6.86 42.9239 4.64 42.9239C2.4 42.9239 0.919996 40.8839 0.919995 38.4439ZM4.14 27.2405C4.14 23.8805 6.6 22.1005 9.72 22.1005C12.82 22.1005 15.28 23.8805 15.28 27.2405C15.28 30.6005 12.82 32.3805 9.72 32.3805C6.6 32.3805 4.14 30.6005 4.14 27.2405ZM14.3 27.2405C14.3 25.0405 12.6 23.4605 9.72 23.4605C6.84 23.4605 5.14 25.0405 5.14 27.2405C5.14 29.4405 6.84 31.0205 9.72 31.0205C12.6 31.0205 14.3 29.4405 14.3 27.2405ZM4.13999 15.7561C4.13999 12.3961 6.59999 10.6161 9.72 10.6161C12.82 10.6161 15.28 12.3961 15.28 15.7561C15.28 19.1161 12.82 20.8961 9.72 20.8961C6.6 20.8961 4.13999 19.1161 4.13999 15.7561ZM14.3 15.7561C14.3 13.5561 12.6 11.9761 9.72 11.9761C6.83999 11.9761 5.13999 13.5561 5.13999 15.7561C5.14 17.9561 6.84 19.5361 9.72 19.5361C12.6 19.5361 14.3 17.9561 14.3 15.7561ZM7.29999 0.0517177C7.83999 0.0117182 8.21999 0.0117182 9.07999 0.0117182L15 0.0117179L15 1.25172L9.21999 1.25172C8.61999 1.25172 8.15999 1.25172 7.61999 1.29172C6.17999 1.43172 5.15999 2.23172 5.15999 4.01172C5.15999 5.77172 6.43999 7.31172 9.73999 7.31172L15 7.31172L15 8.55172L4.41999 8.55172L4.41999 7.31172L6.45999 7.31172L5.31999 6.75172C4.45999 5.89172 4.13999 4.95172 4.13999 3.77172C4.13999 1.53172 5.35999 0.251718 7.29999 0.0517177Z" fill="#2B7B86"/>
</svg>
