<svg width="413" height="77" viewBox="0 0 413 77" fill="none" xmlns="http://www.w3.org/2000/svg">
<path d="M260.783 22.3591C236.804 22.3591 216.535 38.3764 216.535 57.3458V58.2886H220.524V57.3458C220.524 41.0927 239.352 26.8376 260.827 26.8376C282.303 26.8376 289.611 39.7233 289.611 51.7672C289.611 64.6866 282.918 72.409 271.699 72.409C261.61 72.409 256.336 64.9672 256.336 57.6039C256.336 51.8346 260.649 44.7856 266.85 43.9101L267.666 43.7978V39.9927H266.727C257.084 39.9927 243.061 47.0529 243.061 58.109C243.061 69.1651 255.531 76.9549 271.454 76.9549C291.209 76.9549 303.019 64.2713 303.019 52.0141C303.019 37.6805 291.924 22.3703 260.805 22.3703L260.783 22.3591Z" fill="#EAEAEA"/>
<path d="M18.6488 29.0376C22.0344 27.7917 25.7552 27.1519 29.6883 27.1519C40.1804 27.1519 51.6669 31.7315 59.656 39.1059L60.4158 39.8131L62.874 36.5917L62.2595 36.008C52.9966 27.208 40.091 22.157 26.8279 22.157C13.5648 22.157 3.67613 27.3427 2.98336 34.4927C1.83248 46.3008 15.0062 51.2396 27.7441 56.0212C28.8503 56.4365 29.9677 56.8519 31.0739 57.2784C33.2863 58.1202 35.4986 58.9508 37.711 59.7814L39.8452 60.5784C42.5827 61.5886 45.4096 62.6325 48.0578 63.8896C49.0299 64.3498 49.8903 64.7763 50.6389 65.3376C51.0747 65.6631 51.3093 65.9998 51.3428 66.3365C51.3875 66.8192 51.03 67.3467 50.7171 67.7059C48.3148 70.4223 43.633 71.2641 39.3647 71.7243C37.6775 71.9039 35.9344 72.0049 34.1913 72.0049C29.666 72.0049 25.1295 71.3876 20.7047 70.1753C13.5983 68.2223 7.5422 64.7988 3.20683 60.2529L2.42468 59.4335L0 62.8008L0.502814 63.3733C11.0731 75.2263 26.0457 76.9998 34.0349 76.9998C48.8064 76.9998 61.265 71.208 61.8237 64.0916C62.5053 55.258 50.9183 50.7008 40.6944 46.6825C39.2641 46.1213 37.8563 45.5713 36.5266 45.0213C34.3142 44.1121 32.0013 43.259 29.7666 42.4396C25.1742 40.7559 20.4254 39.0049 16.2018 36.5917C13.9 35.2784 12.6932 34.2233 13.3525 32.7417C13.7659 31.7988 15.0285 30.407 18.6488 29.0713V29.0376Z" fill="#EAEAEA"/>
<path d="M140.206 50.4768C139.457 48.9951 138.809 47.7043 138.273 46.6941C137.077 44.4604 136.094 42.4625 135.211 40.7115C134.094 38.4666 133.122 36.5135 132.027 34.6278C125.546 23.3921 118.372 23.3921 106.495 23.3921C97.8017 23.3921 76.4935 24.29 76.2812 24.3013L75.3762 24.3349V28.2747H76.3148C76.5159 28.2747 96.8966 28.3758 103.489 29.3298C112.272 30.6094 114.987 32.0686 119.244 39.4543C119.166 39.6115 119.087 39.7686 118.987 39.8921C118.205 40.8798 116.909 41.4298 115.747 41.8451C113.11 42.788 110.35 43.3268 107.769 43.7757C105.545 44.1574 103.277 44.4941 101.076 44.8308C95.7681 45.6166 90.2818 46.4359 84.9967 47.9625C78.4154 49.8594 71.4095 52.6319 69.2642 58.8165C68.8843 59.9053 68.6943 61.0839 68.6943 62.2849C68.6943 71.3094 79.1864 76.9216 96.0697 76.9216C111.501 76.9216 124.563 70.5237 130.049 60.6798C133.993 68.0318 139.77 75.9114 148.541 75.9114H157.759V71.9043H155.379C151.044 71.9043 143.736 57.4247 140.228 50.4655L140.206 50.4768ZM97.1312 72.5329C87.7007 72.5329 82.0692 67.3359 82.0692 62.3074C82.0692 57.2788 85.5554 52.688 90.9522 51.0604C94.8183 49.8931 98.9078 49.2757 102.852 48.6696C106.461 48.1196 110.193 47.5584 113.802 46.5706C114.361 46.4135 114.908 46.2564 115.456 46.088C117.087 45.5941 118.797 44.9768 120.238 43.8655C120.585 43.5962 120.886 43.2931 121.177 42.99C122.037 44.6288 122.976 46.4696 124.06 48.5686L125.333 51.0604C125.78 51.9247 126.272 52.9798 126.82 54.1584C127.177 54.9104 127.557 55.7298 127.959 56.5717C124.54 64.7094 113.255 72.5329 97.1424 72.5329H97.1312Z" fill="#EAEAEA"/>
<path d="M223.047 33.8192L224.6 30.3059L223.986 29.8569C215.047 23.3018 203.94 22.3253 198.119 22.3253C190.23 22.3253 181.224 24.9967 175.514 29.1498V23.4029H162.117V75.9334H175.514V38.5896C175.783 38.2416 175.995 37.8937 176.308 37.5457C180.475 32.7304 189.571 27.1182 201.46 27.1182C208.655 27.1182 215.617 29.1835 222.12 33.2692L223.036 33.8416L223.047 33.8192Z" fill="#EAEAEA"/>
<path d="M411.256 23.4703H397.858V75.9223H411.256V23.4703Z" fill="#EAEAEA"/>
<path d="M377.278 33.3816C369.166 25.951 358.64 22.3143 345.254 22.3143C327.734 22.3143 309.107 31.9 309.107 49.6571C309.107 65.9663 324.348 76.9214 347.042 76.9214C357.612 76.9214 368.585 72.8693 377.278 65.9214V75.9224H390.675V0L377.278 1.66122V33.3928V33.3816ZM346.852 71.0173C328.985 71.0173 322.493 58.2438 322.493 49.6571C322.493 42.1479 331.354 28.1285 348.293 28.1285C361.076 28.1285 368.853 31.0694 377.267 39.1061V59.8377C370.149 66.752 358.696 71.0285 346.841 71.0285L346.852 71.0173Z" fill="#EAEAEA"/>
<path d="M404.553 18.9132C409.212 18.9132 413 15.1081 413 10.4275C413 5.74693 409.212 1.94183 404.553 1.94183C399.893 1.94183 396.105 5.74693 396.105 10.4275C396.105 15.1081 399.893 18.9132 404.553 18.9132Z" fill="#EAEAEA"/>
</svg>
