<svg width="198" height="40" viewBox="0 0 198 40" fill="none" xmlns="http://www.w3.org/2000/svg">
<g clip-path="url(#clip0_43_1677)">
<path d="M31.0696 26.3565C30.4432 27.6463 29.7816 29.4058 28.9524 31.1285C26.8969 35.3938 23.9329 38.047 18.6488 38.047C12.6678 38.047 6.625 33.3211 6.625 25.4169C6.625 21.1239 11.0005 14.3528 19.3722 14.3528C23.7653 14.3528 27.091 15.6241 29.3758 17.4482L30.7255 15.6794C26.9587 12.7867 22.6273 11.368 17.8637 11.368C9.20089 11.3773 0 16.3059 0 25.4261C0 33.8001 7.53362 40 18.7458 40C32.8956 40 34.6599 33.2013 38.3385 25.8498C39.8205 22.8835 41.1085 19.825 43.1375 17.6509C44.7342 15.9374 46.7102 14.8779 49.2067 14.3436C50.8828 13.9843 51.7561 13.9383 51.7561 13.9383V11.3865H47.7158C37.324 11.3865 37.077 13.9475 31.0519 26.3657L31.0696 26.3565Z" fill="white"/>
<path d="M59.2719 11.3865C58.7514 11.3865 58.2398 11.4049 57.7369 11.4233V13.9659C57.7369 13.9659 57.7546 13.9659 57.7634 13.9659C66.1351 13.9659 70.5106 20.6817 70.5106 25.4353C70.5106 29.848 67.3083 37.0336 58.4779 37.0336C56.9606 37.0336 55.461 36.8862 53.9966 36.6099V38.9682C55.4521 39.2815 56.9253 39.4381 58.3809 39.4381C69.5931 39.4381 77.1267 33.8093 77.1267 25.4353C77.1267 16.3151 67.9258 11.3957 59.2631 11.3957L59.2719 11.3865Z" fill="white"/>
<path d="M95.1142 11.3865C87.2453 11.3865 81.0879 15.6426 81.0879 21.0687C81.0879 26.4947 88.0128 30.3731 92.7765 30.3731H93.244V28.4201L92.8382 28.3648C89.7771 27.9134 87.6423 24.293 87.6423 21.3266C87.6423 17.5495 90.2535 13.7264 95.2377 13.7264C100.778 13.7264 104.086 17.6877 104.086 24.3298C104.086 30.5205 100.354 37.135 89.8654 37.135C89.7507 37.135 89.6272 37.135 89.5125 37.135V39.4381C89.6272 39.4381 89.733 39.4381 89.8477 39.4381C105.233 39.4381 110.711 31.5707 110.711 24.2101C110.711 17.9088 104.88 11.3957 95.1142 11.3957V11.3865Z" fill="white"/>
<path d="M124.552 24.3206C124.552 30.5113 121.358 37.1257 110.878 37.1257C110.764 37.1257 110.64 37.1257 110.525 37.1257V39.4288C110.64 39.4288 110.746 39.4288 110.861 39.4288C126.245 39.4288 131.177 31.5615 131.177 24.2008V11.4325L124.56 12.5656V24.3206H124.552Z" fill="white"/>
<path d="M191.481 12.3077V28.4017C191.481 32.9802 190.414 36.5638 186.259 36.5638C182.527 36.5638 180.278 33.6158 180.278 28.8162V24.0995V13.1552L173.758 14.0028V28.4017C173.758 32.9802 172.691 36.5638 168.536 36.5638C164.84 36.5638 162.608 33.6619 162.564 28.9452C162.582 28.632 162.599 28.3187 162.599 27.9871V14.8595L156.08 15.707V28.4017C156.08 35.8452 152.49 36.5362 149.711 36.5362C149.305 36.5362 143.783 36.7757 143.783 30.5205V0L137.264 1.13312L137.361 29.8388C137.361 33.0907 139.019 38.8577 149.402 38.8577C153.672 38.8577 159.079 37.6601 161.426 33.2197C162.52 36.8678 165.096 38.8761 169.03 38.8761C173.247 38.8761 177.234 36.9139 179.131 33.146C180.207 36.831 182.801 38.8761 186.761 38.8761C192.619 38.8761 198.018 35.099 198.018 27.9779V11.4602L191.499 12.3077H191.481Z" fill="white"/>
</g>
<defs>
<clipPath id="clip0_43_1677">
<rect width="198" height="40" fill="white"/>
</clipPath>
</defs>
</svg>
